<mxfile host="app.diagrams.net" modified="2024-03-11T02:13:03.963Z" agent="Mozilla/5.0 (Windows NT 10.0; Win64; x64) AppleWebKit/537.36 (KHTML, like Gecko) Chrome/121.0.0.0 Safari/537.36" version="24.0.4" etag="0cDxwzBP812iLg9rc3UB" type="github">
  <diagram name="第 1 页" id="T9aRxTu4N2Gmu1EV9HFR">
    <mxGraphModel>
      <root>
        <mxCell id="0" />
        <mxCell id="1" parent="0" />
      </root>
    </mxGraphModel>
  </diagram>
</mxfile>
